<svg width="204" height="33" viewBox="0 0 204 33" fill="none" xmlns="http://www.w3.org/2000/svg">
<g id="Icon">
<path id="Vector" d="M200.885 0L180.213 0.0165522L179.57 1.00928L179.316 0.0330965H158.517L158.009 1.15819L157.814 0.0330965L136.829 0.057909L136.465 1.38982L136.33 0.057909L115.149 0.0744612L114.955 2.26673L114.896 0.0744612L93.5885 0.115826L93.5039 2.11783L93.2924 0.115826L72.1799 0.13237L72.0445 1.43119L71.6722 0.13237H61.4926L60.6718 5.67511L60.2064 4.53347L59.9948 4.51692L58.2178 0.13237L48.1566 0.148914L47.962 1.22437L47.4374 0.148914H37.4946L37.2408 1.14164L36.6484 0.148914L26.7903 0.173735L25.6395 4.50038H22.9656L22.4579 6.38656L17.8038 0.173735L8.20803 0.190279L0 25.0995L8.71575 32.9917H18.2269L19.7331 27.449L20.4693 28.2514H23.0079L27.2388 32.9917H37.0039L37.1985 32.0983L37.8839 32.9917H47.7335L47.9028 32.0238L48.5289 32.9917H58.4717L59.2332 27.7882L61.7887 33H71.8415L71.9599 31.7922L72.383 32.9917H93.3262L93.4108 31.1055L93.6393 32.9917H114.752L114.946 30.9235L115.031 32.9917H125.38L125.718 31.544L125.803 32.9917H136.042L136.473 31.7343L136.592 32.9917H146.712L147.237 31.8915L147.389 32.9917H157.417L158.017 31.9824L158.195 32.9917H168.138L173.892 24.992L173.621 23.7097H176.794L181.321 17.5879L185.18 32.9752H194.928L203.077 25.0416L202.925 24.4377L202.298 22.3364L201.706 20.4089L199.624 13.741C199.337 12.7897 199.024 11.8135 198.753 10.8787L198.711 10.7298L202.806 5.90675L200.885 0ZM181.211 1.38982H199.828L201.156 5.46829H195.757L195.791 5.60065C196.011 6.50238 196.265 7.42066 196.51 8.33066C196.764 9.26548 197.061 10.2003 197.331 11.1682L198.228 14.0802C198.541 15.073 198.854 16.0491 199.151 17.0419L199.709 18.8536C199.904 19.4575 200.098 20.0945 200.301 20.6984L200.885 22.5846L201.444 24.4708H193.007L187.702 5.46829H182.286L181.211 1.38982ZM178.207 1.40637L179.24 5.48483H168.282L169.28 10.1176H180.391L181.541 14.6924H170.253L172.335 24.4708L163.915 24.4956L159.6 1.43119L178.207 1.40637ZM156.604 1.43119L160.674 24.4956H152.255L151.163 17.0584H148.007L149.039 24.4956H140.611L138.022 1.44773L156.604 1.43119ZM135.035 1.44773L135.915 9.98521H133.148L133.402 12.558H136.169L137.396 24.4956H128.993L128.232 14.7669L125.118 14.6924L125.761 24.4956H117.358L116.478 1.46428L135.035 1.44773ZM113.491 1.46428L113.609 5.54274H102.846L102.592 19.7719H114.016L114.159 24.5122H94.1555L94.9509 1.4891L113.491 1.46428ZM91.9723 1.4891L91.7946 5.56756H80.8957L80.5403 10.2748L91.583 10.2913L91.3884 14.7338L80.1341 14.7503L79.7618 19.7305L91.1515 19.7636L90.9399 24.5122H70.9699L73.4492 1.50564L91.9723 1.4891ZM70.4791 1.50564L67.7544 24.5039H59.3771L60.4264 17.1908L57.6509 17.1081L58.3532 12.3678L55.3069 12.3099L53.3268 24.5287H44.9326L49.3159 1.53046H57.0755L56.3985 5.77439L59.064 5.85711L58.4209 10.2913L61.4249 10.3327L62.6942 1.52219L70.4791 1.50564ZM27.8819 1.53874H35.6415L30.1582 24.537H21.7978L24.311 14.7751H21.2901L19.987 19.5154H14.5714L15.9084 14.7751H12.8621L9.90041 24.537H1.69238L9.24039 1.56355H16.8476L15.5953 5.73302L18.2523 5.8323L16.9238 10.3492H22.8133L24.0402 5.88193H26.7311L27.8819 1.53874ZM46.3458 1.58009L41.7256 24.5866H33.3568L38.5862 1.60492L46.3458 1.58009ZM149.31 5.0712L149.649 7.75984L146.755 7.73502L146.391 5.08775H142.82L143.192 7.99975H146.467L146.619 9.07521H144.986L145.587 13.5921H147.558L147.398 12.0617L150.325 12.0451L150.579 13.5921H152.585L151.882 9.1083H150.249L150.114 8.02457L153.465 7.99975L152.999 5.0712H149.31ZM124.534 5.5262L124.838 10.2748H127.918L127.555 5.5262H124.534ZM114.413 13.8403L114.566 18.3738L104.276 18.3572L104.369 14.9654H114.329L114.413 13.8403Z" fill="black"/>
</g>
</svg>
